<svg xmlns="http://www.w3.org/2000/svg" width="375" height="561" fill="none" viewBox="0 0 375 561"><path fill="#FFDDDF" d="M263.156 205.21c-29.993 12.45 9.055-60.5 18.055-89.902C305.303 51.099 259.512-3.626 196.916.188c-42.147 4.291-19.224 20.98-20.258 43.309-.489 17.72-7.477 34.727-14.139 51.759-35.268 89.32-72.303 154.296-112.004 241.894-33.582 74.168-51.338 134.827-89.27 140.072-35.649 4.927-30.455 46.646-3.617 57.798 126.47 52.554 300.688 28.052 378.375-98.061 25.669-41.666 49.407-92.551 49.978-136.019 1.197-88.737-55.417-123.781-122.852-95.756zm-20.639 150.562c-14.248 31.971-30.944 63.36-54.193 93.16-6.39 8.185-13.515 16.105-22.869 23.098-3.616 2.702-7.668 5.059-12.889 6.41-6.063 1.563-10.767.292-13.432-3.549-2.638-3.788-2.991-7.894-2.937-11.92.218-18.198 5.928-35.866 12.971-53.348 15.417-38.462 35.295-75.89 62.976-111.464 5.003-6.437 10.523-12.582 16.995-18.569 18.191-16.847 37.66-14.913 34.234 13.509-2.692 22.489-11.176 41.031-20.829 62.699z" opacity=".29" style="mix-blend-mode:multiply"/></svg>