<svg xmlns="http://www.w3.org/2000/svg" width="1280" height="435" fill="none" viewBox="0 0 1280 435"><mask id="a" width="1289" height="436" x="-4" y="-1" maskUnits="userSpaceOnUse" style="mask-type:alpha"><path fill="#D9D9D9" fill-rule="evenodd" d="M-4 435h1289V9.189c-9.98-4.115-21.8-7.853-33.51-8.778 0 0-24.87-3.238-42.55 8.777-9.95-4.114-21.8-7.852-33.53-8.777 0 0-24.85-3.238-42.55 8.777-9.93-4.114-21.8-7.852-33.51-8.777 0 0-24.87-3.238-42.55 8.777-9.95-4.114-21.77-7.852-33.53-8.777 0 0-2.39-.329-6.2-.39-8.5-.085-23.276 1.06-35.09 8.754-9.731-3.933-21.175-7.487-32.586-8.376 0 0-24.856-3.238-42.518 8.777-9.983-4.114-21.797-7.852-33.561-8.777 0 0-24.805-3.238-42.501 8.777-9.966-4.114-21.797-7.852-33.51-8.777 0 0-23.41-3.056-40.955 7.743-.538.328-1.076.67-1.597 1.034a151 151 0 0 0-8.167-3.116c-8-2.752-16.688-4.98-25.343-5.661 0 0-8.47-1.096-19.007.377-7.546 1.035-16.184 3.397-23.561 8.4-6.907-2.86-14.772-5.539-22.856-7.219-3.529-.73-7.092-1.278-10.654-1.558 0 0-24.856-3.238-42.552 8.777-9.932-4.114-21.797-7.852-33.51-8.777 0 0-24.872-3.238-42.569 8.777-9.932-4.114-21.746-7.852-33.51-8.777 0 0-1.899-.256-5.008-.353-8.117-.231-24.099.536-36.72 8.729-9.713-3.933-21.158-7.487-32.569-8.376 0 0-24.872-3.238-42.518 8.777-9.982-4.114-21.797-7.852-33.561-8.777 0 0-24.805-3.238-42.501 8.777-9.965-4.114-21.78-7.852-33.51-8.777 0 0-24.855-3.238-42.568 8.777-9.966-4.114-21.78-7.852-33.494-8.777 0 0-24.872-3.238-42.568 8.777-9.932-4.114-21.797-7.852-33.51-8.777 0 0-24.856-3.238-42.569 8.777C62.012 5.062 50.147 1.324 38.434.4c0 0-24.738-3.214-42.434 8.692V435" clip-rule="evenodd"/></mask><g mask="url(#a)"><path fill="#FFE9D9" d="M1287 435H0V0h1287z"/></g><mask id="c" width="1285" height="435" x="0" y="0" maskUnits="userSpaceOnUse" style="mask-type:alpha"><mask id="b" width="1289" height="436" x="-4" y="0" maskUnits="userSpaceOnUse" style="mask-type:alpha"><path fill="#D9D9D9" fill-rule="evenodd" d="M-4 435.004h1289V9.193c-9.98-4.115-21.8-7.852-33.51-8.777 0 0-24.87-3.239-42.55 8.777-9.95-4.115-21.8-7.852-33.53-8.777 0 0-24.85-3.239-42.55 8.777-9.93-4.115-21.8-7.852-33.51-8.777 0 0-24.87-3.239-42.55 8.777-9.95-4.115-21.77-7.852-33.53-8.777 0 0-2.39-.33-6.2-.39-8.5-.085-23.276 1.06-35.09 8.753-9.731-3.932-21.175-7.487-32.586-8.376 0 0-24.856-3.238-42.518 8.778-9.983-4.115-21.797-7.852-33.561-8.778 0 0-24.805-3.238-42.501 8.778-9.966-4.115-21.797-7.852-33.51-8.778 0 0-23.41-3.055-40.955 7.743-.538.329-1.076.67-1.597 1.035a151 151 0 0 0-8.167-3.117c-8-2.751-16.688-4.979-25.343-5.66 0 0-8.47-1.096-19.007.377-7.546 1.035-16.184 3.396-23.561 8.4-6.907-2.861-14.772-5.54-22.856-7.22-3.529-.73-7.092-1.278-10.654-1.558 0 0-24.856-3.238-42.552 8.778-9.932-4.115-21.797-7.852-33.51-8.778 0 0-24.872-3.238-42.569 8.778-9.932-4.115-21.746-7.852-33.51-8.778 0 0-1.899-.255-5.008-.353-8.117-.231-24.099.536-36.72 8.729-9.713-3.932-21.158-7.487-32.569-8.376 0 0-24.872-3.238-42.518 8.778-9.982-4.115-21.797-7.852-33.561-8.778 0 0-24.805-3.238-42.501 8.778-9.965-4.115-21.78-7.852-33.51-8.778 0 0-24.855-3.238-42.568 8.778-9.966-4.115-21.78-7.852-33.494-8.778 0 0-24.872-3.238-42.568 8.778-9.932-4.115-21.797-7.852-33.51-8.778 0 0-24.856-3.238-42.569 8.778-9.915-4.115-21.78-7.852-33.493-8.778 0 0-24.738-3.214-42.434 8.693v425.908" clip-rule="evenodd"/></mask><g mask="url(#b)"><path fill="#FC0015" d="M1287.01 434.276H.02V.004h1286.99z"/></g></mask><g mask="url(#c)"><path fill="#FFDDCE" fill-opacity=".29" d="M722.024 94.371C681.5 111.26 734.258 12.303 746.419-27.582c32.551-87.099-29.318-161.335-113.892-156.16-56.946 5.821-25.975 28.458-27.371 58.748-.661 24.039-10.103 47.107-19.104 70.212-47.651 121.162-97.69 209.303-151.329 328.131-45.373 100.609-69.364 182.893-120.615 190.008-48.165 6.683-41.148 63.276-4.886 78.404 170.874 71.289 406.262 38.052 511.226-133.021 34.682-56.521 66.755-125.546 67.527-184.51C889.591 103.857 813.1 56.32 721.987 94.335zM694.139 298.61c-19.252 43.37-41.81 85.949-73.222 126.373-8.633 11.103-18.259 21.846-30.897 31.332-4.887 3.665-10.361 6.863-17.415 8.696-8.192 2.12-14.548.395-18.149-4.815-3.564-5.138-4.041-10.708-3.968-16.169.294-24.686 8.009-48.652 17.525-72.367 20.831-52.174 47.687-102.946 85.088-151.202 6.76-8.732 14.218-17.068 22.962-25.189 24.579-22.852 50.884-20.229 46.255 18.326-3.638 30.506-15.1 55.658-28.143 85.051z" style="mix-blend-mode:multiply"/></g></svg>