<svg xmlns="http://www.w3.org/2000/svg" width="375" height="179" fill="none" viewBox="0 0 375 179"><path fill="#FFE9D9" fill-rule="evenodd" d="M571.01 7.723v163.05c-10.53 9.78-25.25 7.14-25.25 7.14-6.97-.76-14.03-3.83-19.93-7.21-10.54 9.87-25.33 7.21-25.33 7.21-6.97-.76-14.03-3.83-19.94-7.21-10.53 9.87-25.33 7.21-25.33 7.21-6.97-.76-14-3.83-19.93-7.21-10.54 9.87-25.33 7.21-25.33 7.21-6.98-.76-14.01-3.83-19.94-7.21-10.53 9.87-25.29 7.21-25.29 7.21-7-.76-14.03-3.83-19.97-7.21-10.5 9.87-25.3 7.21-25.3 7.21-6.79-.73-13.6-3.65-19.38-6.88-7.51 6.73-17.02 7.36-21.85 7.17-1.85-.08-2.98-.29-2.98-.29-7-.76-14.03-3.83-19.94-7.21-10.53 9.87-25.33 7.21-25.33 7.21-6.97-.76-14.03-3.83-19.94-7.21-10.53 9.87-25.32 7.21-25.32 7.21-2.12-.23-4.24-.68-6.34-1.28-4.81-1.38-9.49-3.58-13.6-5.93-4.39 4.11-9.53 6.05-14.02 6.9-6.27 1.21-11.31.31-11.31.31-5.15-.56-10.32-2.39-15.08-4.65-1.68-.81-3.31-1.67-4.86-2.56-.31.3-.63.58-.95.85-10.44 8.87-24.37 6.36-24.37 6.36-6.97-.76-14.01-3.83-19.94-7.21-10.53 9.87-25.29 7.21-25.29 7.21-7-.76-14.03-3.83-19.97-7.21-10.51 9.87-25.3 7.21-25.3 7.21-6.79-.73-13.6-3.65-19.39-6.88-7.03 6.32-15.82 7.26-20.88 7.19-2.27-.05-3.69-.32-3.69-.32-7-.76-14.03-3.83-19.95-7.21-10.52 9.87-25.32 7.21-25.32 7.21-6.97-.76-14.03-3.83-19.94-7.21-10.53 9.87-25.32 7.21-25.32 7.21-6.98-.76-14.03-3.83-19.95-7.21-10.52 9.87-25.32 7.21-25.32 7.21-6.97-.76-14-3.83-19.94-7.21V7.643c10.52-9.78 25.24-7.14 25.24-7.14 6.98.76 14.04 3.83 19.94 7.22 10.54-9.87 25.33-7.22 25.33-7.22 6.97.76 14.03 3.83 19.94 7.22 10.53-9.87 25.32-7.22 25.32-7.22 6.98.76 14.01 3.83 19.94 7.22 10.54-9.87 25.33-7.22 25.33-7.22 6.98.76 14.01 3.83 19.94 7.22C-4.49-2.147 10.27.503 10.27.503c7 .76 14.03 3.83 19.97 7.22 10.5-9.87 25.3-7.22 25.3-7.22 6.79.73 13.6 3.65 19.38 6.88C82.43.653 91.94.033 96.77.213c1.85.08 2.98.29 2.98.29 7 .76 14.03 3.83 19.94 7.22 10.53-9.87 25.33-7.22 25.33-7.22 6.97.76 14.03 3.83 19.93 7.22 6.12-5.73 13.69-7.25 18.95-7.5 3.79-.19 6.38.28 6.38.28 6.97.76 14.03 3.83 19.94 7.22 8.47-7.94 19.69-7.78 23.76-7.41 1 .09 1.57.19 1.57.19 6.97.76 14 3.83 19.93 7.22 10.54-9.87 25.33-7.22 25.33-7.22 6.97.76 14.01 3.83 19.94 7.22 10.53-9.87 25.29-7.22 25.29-7.22 7 .76 14.03 3.83 19.97 7.22 10.5-9.87 25.3-7.22 25.3-7.22 6.79.73 13.6 3.65 19.39 6.88 7.02-6.31 15.82-7.26 20.87-7.19 2.27.06 3.7.31 3.7.31 7 .76 14.03 3.83 19.95 7.22 10.52-9.87 25.31-7.22 25.31-7.22 6.98.76 14.03 3.83 19.95 7.22 10.53-9.87 25.32-7.22 25.32-7.22 6.98.76 14.03 3.83 19.94 7.22 10.53-9.87 25.33-7.22 25.33-7.22 6.97.76 14 3.83 19.94 7.22" clip-rule="evenodd"/></svg>