<svg xmlns="http://www.w3.org/2000/svg" width="23" height="23" fill="none" viewBox="0 0 23 23"><path fill="#fff" stroke="#fff" stroke-width=".94" d="M9.369 2.222a7.2 7.2 0 0 1 5.127 2.124 7.2 7.2 0 0 1 2.123 5.126 7.2 7.2 0 0 1-2.123 5.127 7.2 7.2 0 0 1-5.127 2.124 7.2 7.2 0 0 1-5.127-2.124 7.2 7.2 0 0 1-2.124-5.127c0-1.938.753-3.756 2.124-5.126a7.2 7.2 0 0 1 5.127-2.124Zm0-1.588A8.84 8.84 0 0 0 .53 9.472a8.84 8.84 0 0 0 8.839 8.839 8.839 8.839 0 1 0 0-17.677Z"/><path fill="#fff" stroke="#fff" stroke-width=".94" d="M20.795 22.023a.79.79 0 0 0 1.124 0 .795.795 0 0 0 0-1.124l-5.413-5.412a.795.795 0 0 0-1.123 1.123z"/></svg>